<svg width="337" height="100" viewBox="0 0 337 100" fill="none" xmlns="http://www.w3.org/2000/svg">
<g clip-path="url(#clip0_14_11)">
<path d="M104.038 58.8195C103.248 58.8195 102.853 58.3973 102.853 57.553V35.8636C102.853 35.019 103.248 34.5967 104.038 34.5967H118.412C119.259 34.5967 119.682 34.9627 119.682 35.6947V37.6879C119.682 38.4199 119.259 38.7859 118.412 38.7859H107.797V44.0224H110.59C114.766 44.0224 117.667 44.6924 119.293 46.0325C120.918 47.3726 121.731 49.1688 121.731 51.421C121.731 53.6733 120.918 55.4692 119.293 56.8097C117.667 58.1497 114.766 58.8195 110.59 58.8195H104.038ZM107.797 54.6978H110.099C112.47 54.6978 114.117 54.4897 115.043 54.073C115.98 53.6564 116.448 52.7724 116.448 51.421C116.448 50.0697 115.98 49.1857 115.043 48.769C114.117 48.3523 112.47 48.144 110.099 48.144H107.797V54.6978ZM127.234 58.8195C126.443 58.8195 126.048 58.3973 126.048 57.553V35.8636C126.048 35.019 126.443 34.5967 127.234 34.5967H133.566C137.629 34.5967 140.446 35.2555 142.015 36.573C143.595 37.8906 144.385 39.76 144.385 42.1811C144.385 44.6023 143.595 46.4717 142.015 47.7893C140.446 49.1068 137.629 49.7656 133.566 49.7656H130.992V57.553C130.992 58.3973 130.597 58.8195 129.807 58.8195H127.234ZM130.992 45.644H133.549C135.807 45.644 137.342 45.3794 138.154 44.8501C138.967 44.3095 139.373 43.4199 139.373 42.1811C139.373 40.9424 138.967 40.0584 138.154 39.5291C137.342 38.9886 135.807 38.7183 133.549 38.7183H130.992V45.644ZM149.719 58.8195C148.928 58.8195 148.533 58.3973 148.533 57.553V35.8636C148.533 35.019 148.928 34.5967 149.719 34.5967H152.292C153.082 34.5967 153.477 35.019 153.477 35.8636V49.1913C153.477 49.867 153.449 50.5427 153.392 51.2183H153.511L161.807 35.7791C162.236 34.9908 162.97 34.5967 164.009 34.5967H167.192C167.982 34.5967 168.377 35.019 168.377 35.8636V57.553C168.377 58.3973 167.982 58.8195 167.192 58.8195H164.618C163.828 58.8195 163.433 58.3973 163.433 57.553V44.2251C163.433 43.5494 163.461 42.8737 163.517 42.1981H163.399L155.102 57.6373C154.674 58.4254 153.94 58.8195 152.902 58.8195H149.719ZM174.98 58.8195C174.19 58.8195 173.795 58.3973 173.795 57.553V35.8636C173.795 35.019 174.19 34.5967 174.98 34.5967H188.169C189.016 34.5967 189.439 34.9627 189.439 35.6947V37.6879C189.439 38.4199 189.016 38.7859 188.169 38.7859H178.738V57.553C178.738 58.3973 178.343 58.8195 177.554 58.8195H174.98ZM189.016 58.8195C188.203 58.8195 187.938 58.4481 188.22 57.7049L196.517 35.9649C196.867 35.0528 197.397 34.5967 198.108 34.5967H200.478C201.19 34.5967 201.72 35.0528 202.07 35.9649L210.366 57.7049C210.648 58.4481 210.383 58.8195 209.57 58.8195H206.879C206.134 58.8195 205.614 58.4314 205.321 57.6541L203.594 53.1102H194.992L193.266 57.6541C192.972 58.4314 192.453 58.8195 191.708 58.8195H189.016ZM196.567 48.921H202.019L199.936 43.5494C199.688 42.9188 199.536 42.4627 199.479 42.1811C199.434 41.8884 199.383 41.4604 199.327 40.8974H199.259C199.203 41.4604 199.146 41.8884 199.09 42.1811C199.045 42.4627 198.898 42.9188 198.65 43.5494L196.567 48.921ZM212.703 65.0697C212.026 65.0697 211.687 64.6757 211.687 63.887V55.8973C211.687 55.053 212.195 54.6303 213.211 54.6303H213.939C215.417 53.0989 216.428 51.3985 216.97 49.5291C217.511 47.6597 217.782 44.5629 217.782 40.2386V35.8636C217.782 35.019 218.177 34.5967 218.967 34.5967H231.496C232.287 34.5967 232.682 35.019 232.682 35.8636V54.6303H234.375C235.391 54.6303 235.898 55.053 235.898 55.8973V63.887C235.898 64.6757 235.56 65.0697 234.883 65.0697H232.682C232.005 65.0697 231.666 64.6757 231.666 63.887V58.8195H215.92V63.887C215.92 64.6757 215.581 65.0697 214.904 65.0697H212.703ZM218.95 54.6303H227.738V38.7859H222.015V41.1845C222.015 45.1935 221.727 48.2791 221.151 50.4413C220.576 52.6035 219.842 53.9998 218.95 54.6303ZM238.862 58.8195C238.049 58.8195 237.783 58.4481 238.066 57.7049L246.362 35.9649C246.712 35.0528 247.243 34.5967 247.954 34.5967H250.324C251.035 34.5967 251.566 35.0528 251.916 35.9649L260.212 57.7049C260.494 58.4481 260.229 58.8195 259.416 58.8195H256.724C255.979 58.8195 255.46 58.4314 255.167 57.6541L253.439 53.1102H244.838L243.111 57.6541C242.818 58.4314 242.299 58.8195 241.554 58.8195H238.862ZM246.413 48.921H251.865L249.782 43.5494C249.534 42.9188 249.382 42.4627 249.325 42.1811C249.28 41.8884 249.229 41.4604 249.173 40.8974H249.105C249.048 41.4604 248.992 41.8884 248.936 42.1811C248.89 42.4627 248.744 42.9188 248.495 43.5494L246.413 48.921ZM276.263 58.8195C275.473 58.8195 275.078 58.3973 275.078 57.553V35.8636C275.078 35.019 275.473 34.5967 276.263 34.5967H278.396C279.423 34.5967 280.157 34.9908 280.597 35.7791L288.25 49.6136H288.369C288.312 48.9379 288.284 48.2622 288.284 47.5865V35.8636C288.284 35.019 288.679 34.5967 289.469 34.5967H292.043C292.833 34.5967 293.228 35.019 293.228 35.8636V57.553C293.228 58.3973 292.833 58.8195 292.043 58.8195H290.045C289.018 58.8195 288.284 58.4254 287.844 57.6373L280.055 43.7183H279.937C279.993 44.394 280.022 45.0697 280.022 45.7454V57.553C280.022 58.3973 279.627 58.8195 278.836 58.8195H276.263ZM295.564 47.4514C295.564 45.3118 296.027 43.7915 296.953 42.8906C297.878 41.9897 299.16 41.5393 300.796 41.5393C302.433 41.5393 303.714 41.9897 304.639 42.8906C305.565 43.7915 306.028 45.3118 306.028 47.4514C306.028 49.5911 305.565 51.1114 304.639 52.0122C303.714 52.9019 302.433 53.3467 300.796 53.3467C299.16 53.3467 297.878 52.9019 296.953 52.0122C296.027 51.1114 295.564 49.5911 295.564 47.4514ZM298.341 47.4514C298.341 48.7465 298.511 49.7093 298.849 50.34C299.188 50.9593 299.837 51.269 300.796 51.269C301.755 51.269 302.404 50.9593 302.743 50.34C303.082 49.7093 303.251 48.7465 303.251 47.4514C303.251 46.1564 303.082 45.1992 302.743 44.5798C302.404 43.9492 301.755 43.6338 300.796 43.6338C299.837 43.6338 299.188 43.9492 298.849 44.5798C298.511 45.1992 298.341 46.1564 298.341 47.4514ZM297.139 58.8027C296.461 58.8027 296.123 58.5211 296.123 57.9584V56.2692C296.123 55.706 296.461 55.4243 297.139 55.4243H304.453C305.13 55.4243 305.469 55.706 305.469 56.2692V57.9584C305.469 58.5211 305.13 58.8027 304.453 58.8027H297.139ZM309.736 57.1135C309.363 56.6178 309.312 56.1903 309.583 55.8297L310.769 54.2081C311.243 53.555 311.818 53.5381 312.495 54.1573C312.902 54.5292 313.528 54.867 314.375 55.1708C315.221 55.4638 316.068 55.6103 316.914 55.6103C318.201 55.6103 319.285 55.2497 320.165 54.5292C321.057 53.8084 321.503 52.7555 321.503 51.3703C321.503 50.0528 321.221 48.9886 320.657 48.1778C320.092 47.367 319.409 46.9616 318.608 46.9616C317.919 46.9616 317.287 47.0178 316.711 47.1305C316.136 47.2318 315.538 47.5528 314.917 48.0933C314.488 48.4649 313.969 48.6508 313.359 48.6508H311.514C310.78 48.6508 310.413 48.2848 310.413 47.5528V35.8974C310.413 35.1654 310.78 34.7994 311.514 34.7994H323.704C324.438 34.7994 324.805 35.1654 324.805 35.8974V37.8906C324.805 38.6226 324.438 38.9886 323.704 38.9886H315.154V43.1271C315.154 43.5776 315.131 44.028 315.086 44.4784H315.188C315.786 43.9604 316.452 43.617 317.185 43.4481C317.919 43.2678 318.704 43.1778 319.539 43.1778C321.514 43.1778 323.179 43.8535 324.534 45.2048C325.9 46.5449 326.582 48.6226 326.582 51.4379C326.582 54.028 325.713 56.0043 323.975 57.367C322.248 58.7184 320.194 59.3941 317.812 59.3941C315.825 59.3941 314.104 59.18 312.648 58.7519C311.203 58.313 310.232 57.7665 309.736 57.1135Z" fill="black"/>
<path d="M335.916 71.3741H101.227C100.629 71.3741 100.144 71.8581 100.144 72.4551V73.0995C100.144 73.6965 100.629 74.1805 101.227 74.1805H335.916C336.515 74.1805 337 73.6965 337 73.0995V72.4551C337 71.8581 336.515 71.3741 335.916 71.3741Z" fill="black"/>
<mask id="mask0_14_11" style="mask-type:luminance" maskUnits="userSpaceOnUse" x="0" y="0" width="101" height="101">
<path d="M100.144 0.0893555H0V100H100.144V0.0893555Z" fill="white"/>
</mask>
<g mask="url(#mask0_14_11)">
<path d="M90.0326 50.0447C96.2422 41.9736 98.0534 34.2713 95.1163 28.2271C92.1272 22.0881 84.7007 18.707 74.199 18.707C72.7031 18.707 71.1536 18.7932 69.5758 18.9248C65.0756 7.3885 58.075 0.0893555 50.0696 0.0893555C42.064 0.0893555 35.0634 7.38634 30.5635 18.9248C28.99 18.7911 27.4404 18.707 25.9426 18.707C15.4427 18.707 8.01422 22.0881 5.02725 28.2271C2.08783 34.2713 3.90119 41.9736 10.1107 50.0447C3.90119 58.1135 2.08783 65.8184 5.02725 71.8622C8.01422 78.0033 15.4427 81.3822 25.9404 81.3822C27.4382 81.3822 28.99 81.2962 30.5635 81.1649C35.0634 92.7033 42.064 99.9978 50.0696 99.9978C58.075 99.9978 65.0756 92.7011 69.5758 81.1649C71.1514 81.2984 72.7009 81.3822 74.199 81.3822C84.6964 81.3822 92.125 78.0033 95.1142 71.8622C98.0556 65.82 96.2422 58.1135 90.0326 50.0447ZM74.199 25.1781C81.969 25.1781 87.465 27.3193 89.2827 31.054C90.9645 34.5106 89.6328 39.5348 85.6581 45.0701C82.2821 41.6286 78.2793 38.3165 73.7797 35.2524C73.2563 31.7376 72.5476 28.4017 71.6786 25.2794C72.5303 25.2298 73.382 25.1781 74.199 25.1781ZM58.0577 66.4562C55.417 67.7351 52.741 68.8757 50.0696 69.8849C47.4004 68.8757 44.7225 67.7351 42.0835 66.4562C38.6772 64.807 35.4589 62.9892 32.4266 61.0654C32.0224 57.5833 31.7804 53.9174 31.7804 50.0425C31.7804 46.1698 32.0224 42.5019 32.4266 39.0195C35.4589 37.0982 38.6772 35.2804 42.0835 33.6308C44.7246 32.3521 47.4004 31.2114 50.0696 30.2023C52.741 31.2114 55.4191 32.3521 58.0577 33.6308C61.4618 35.2804 64.6801 37.096 67.7104 39.0195C68.1168 42.5019 68.3589 46.172 68.3589 50.0447C68.3589 53.9174 68.1168 57.5854 67.7104 61.0676C64.6845 62.9892 61.464 64.8092 58.0577 66.4562ZM66.3207 69.4276C65.9642 71.0362 65.573 72.5806 65.1385 74.053C63.3186 73.7427 61.464 73.3611 59.5709 72.8822C60.012 72.673 60.4524 72.4897 60.8913 72.2805C62.7502 71.3751 64.5506 70.4151 66.3207 69.4276ZM40.5705 72.8822C38.6772 73.3611 36.8227 73.7427 35.0007 74.053C34.5663 72.5806 34.1751 71.0362 33.8185 69.4254C35.5865 70.413 37.3869 71.373 39.25 72.2741C39.6908 72.4897 40.1317 72.673 40.5705 72.8822ZM25.48 56.1665C22.9664 54.1914 20.6624 52.1406 18.6545 50.0447C20.6624 47.9466 22.9664 45.9002 25.48 43.9229C25.3633 45.9283 25.2963 47.966 25.2963 50.0447C25.2963 52.1234 25.3633 54.1611 25.48 56.1665ZM33.8206 30.6616C34.1773 29.053 34.5685 27.5069 35.0029 26.0341C36.8227 26.3468 38.6772 26.7284 40.5705 27.2071C40.1317 27.412 39.6908 27.5953 39.2521 27.8088C37.389 28.7144 35.5886 29.674 33.8206 30.6616ZM59.5709 27.2093C61.464 26.7306 63.3186 26.3468 65.1385 26.0363C65.5708 27.509 65.9642 29.053 66.3207 30.6616C64.5528 29.674 62.7524 28.7123 60.8913 27.8109C60.4546 27.5996 60.012 27.4163 59.5709 27.2093ZM74.6612 43.9186C77.173 45.8981 79.4789 47.9444 81.4868 50.0425C79.4789 52.1406 77.173 54.187 74.6612 56.1665C74.7782 54.1611 74.8448 52.1234 74.8448 50.0425C74.8448 47.9638 74.776 45.9261 74.6612 43.9186ZM50.0696 6.55828C54.6021 6.55828 59.3894 11.492 62.9361 19.839C58.7691 20.611 54.4482 21.784 50.0718 23.3236C45.695 21.784 41.3745 20.6131 37.2075 19.839C40.7499 11.492 45.5394 6.55828 50.0696 6.55828ZM10.8607 31.054C12.6763 27.3193 18.1747 25.1781 25.9426 25.1781C26.7574 25.1781 27.6111 25.232 28.4627 25.2773C27.5938 28.4017 26.887 31.7376 26.364 35.2524C21.8641 38.3165 17.8591 41.6286 14.4874 45.0701C10.5084 39.5327 9.17703 34.5106 10.8607 31.054ZM25.9404 74.9114C18.1747 74.9114 12.6763 72.7703 10.8607 69.0351C9.17703 65.5768 10.5084 60.5524 14.4874 55.0195C17.8591 58.4606 21.8641 61.773 26.364 64.8368C26.887 68.3519 27.596 71.6897 28.4627 74.8119C27.6111 74.8616 26.7552 74.9114 25.9404 74.9114ZM50.0696 93.5308C45.5394 93.5308 40.7499 88.5995 37.2053 80.2524C41.3723 79.4805 45.6929 78.3076 50.0718 76.766C54.4482 78.3076 58.7691 79.4784 62.9361 80.2524C59.3916 88.5995 54.6021 93.5308 50.0696 93.5308ZM89.2827 69.0373C87.4672 72.7703 81.9711 74.9135 74.2012 74.9135C73.3863 74.9135 72.5324 74.8595 71.6786 74.8141C72.5454 71.6897 73.2541 68.3541 73.7797 64.8389C78.2815 61.7751 82.2865 58.4606 85.6603 55.0216C89.6328 60.5546 90.9667 65.5789 89.2827 69.0373Z" fill="black"/>
<path d="M50.0696 60.0757C55.6228 60.0757 60.1241 55.5849 60.1241 50.0447C60.1241 44.5046 55.6228 40.0135 50.0696 40.0135C44.5166 40.0135 40.015 44.5046 40.015 50.0447C40.015 55.5849 44.5166 60.0757 50.0696 60.0757Z" fill="black"/>
</g>
</g>
<defs>
<clipPath id="clip0_14_11">
<rect width="337" height="100" fill="white"/>
</clipPath>
</defs>
</svg>
