<svg width="70" height="70" viewBox="0 0 70 70" fill="none" xmlns="http://www.w3.org/2000/svg">
<g id="infoIcon 1">
<path id="Vector" d="M34.9998 48.8542C34.4221 48.8466 33.8699 48.6138 33.4613 48.2052C33.0527 47.7966 32.8199 47.2445 32.8123 46.6667V32.0833C32.8123 31.5032 33.0428 30.9467 33.4531 30.5366C33.8632 30.1262 34.4197 29.8958 34.9998 29.8958C35.58 29.8958 36.1365 30.1262 36.5466 30.5366C36.9569 30.9467 37.1873 31.5032 37.1873 32.0833V46.6667C37.1798 47.2445 36.947 47.7966 36.5384 48.2052C36.1298 48.6138 35.5776 48.8466 34.9998 48.8542Z" fill="black"/>
<path id="Vector_2" d="M34.9998 26.9792C34.4221 26.9716 33.8699 26.7387 33.4613 26.3301C33.0527 25.9215 32.8199 25.3695 32.8123 24.7917V23.3333C32.8123 22.7532 33.0428 22.1968 33.4531 21.7865C33.8632 21.3763 34.4197 21.1458 34.9998 21.1458C35.58 21.1458 36.1365 21.3763 36.5466 21.7865C36.9569 22.1968 37.1873 22.7532 37.1873 23.3333V24.7917C37.1798 25.3695 36.947 25.9215 36.5384 26.3301C36.1298 26.7387 35.5776 26.9716 34.9998 26.9792Z" fill="black"/>
<path id="Vector_3" d="M34.9998 61.25C29.8082 61.25 24.7329 59.7106 20.4161 56.826C16.0993 53.9417 12.7348 49.842 10.748 45.0456C8.76122 40.2488 8.24138 34.9708 9.25425 29.8789C10.2671 24.7869 12.7672 20.1096 16.4383 16.4384C20.1094 12.7673 24.7867 10.2672 29.8788 9.2544C34.9707 8.24153 40.2487 8.76137 45.0454 10.7482C49.8419 12.735 53.9416 16.0995 56.8258 20.4163C59.7104 24.7331 61.2498 29.8083 61.2498 35C61.2498 41.9621 58.4843 48.6386 53.5615 53.5617C48.6385 58.4844 41.9619 61.25 34.9998 61.25ZM34.9998 13.125C30.6733 13.125 26.4441 14.4079 22.8468 16.8116C19.2494 19.2153 16.4456 22.6317 14.79 26.6288C13.1343 30.6259 12.7011 35.0242 13.5452 39.2677C14.3892 43.5108 16.4726 47.4087 19.5319 50.468C22.5912 53.5273 26.4889 55.6106 30.7322 56.4547C34.9756 57.2988 39.374 56.8657 43.371 55.2099C47.3683 53.5541 50.7846 50.7503 53.1882 47.1532C55.5918 43.5557 56.8748 39.3266 56.8748 35C56.8748 29.1985 54.5701 23.6344 50.4678 19.532C46.3655 15.4297 40.8014 13.125 34.9998 13.125Z" fill="black"/>
</g>
</svg>
  